<?xml version="1.0" encoding="utf-8"?>
<!-- Generator: Adobe Illustrator 27.0.1, SVG Export Plug-In . SVG Version: 6.00 Build 0)  -->
<svg version="1.1" id="Layer_1" xmlns="http://www.w3.org/2000/svg" xmlns:xlink="http://www.w3.org/1999/xlink" x="0px" y="0px"
	 viewBox="0 0 841.9 595.3" style="enable-background:new 0 0 841.9 595.3;" xml:space="preserve">
<style type="text/css">
	.st0{fill:#4F4484;}
	.st1{fill:#FFFFFF;}
</style>
<g>
	<path class="st0" d="M115.3,196c28.4,0,56.8,0,85.2,0c3.3,0,6.2,0.6,8.7,3c3.4,3.4,4,7.3,2.5,11.5c-1.5,4.1-4.7,6.5-9.3,6.8
		c-1.1,0.1-2.1,0-3.2,0c-52.9,0-105.8,0-158.6,0c-3.4,0-3.4,0-3.4,3.4c0,7.6,0.1,15.2-0.1,22.8c0,2.4,0.5,3.1,3,3.1
		c29.5-0.1,59.1-0.1,88.6-0.1c16.9,0,33.8,0,50.7,0c8.6,0,13.7,8.4,9.7,15.8c-1.8,3.3-4.6,5.3-8.5,5.4c-1.1,0-2.3,0-3.4,0
		c-45.5,0-90.9,0-136.4,0c-3.7,0-3.7,0-3.7,3.5c0,7.6,0.1,15.2-0.1,22.8c-0.1,2.6,0.8,3.2,3.3,3.2c39.6-0.1,79.2-0.1,118.8,0
		c6.1,0,10,2.6,11.6,7.7c1.9,6-2.4,12.8-8.7,13.5c-1.1,0.1-2.3,0.1-3.4,0.1c-43.4,0-86.8,0-130.3,0c-2.9,0-5.6-0.1-8-2
		c-3.1-2.4-4.5-5.5-4.5-9.4c0-32.9,0.1-65.8-0.1-98.7c0-7.1,3.9-11.9,11.7-12.6c1.1-0.1,2.3-0.1,3.4-0.1
		C59.1,196,87.2,196,115.3,196z"/>
	<path class="st1" d="M109.5,358.9c-27.1,0-54.3,0-81.4,0c-6.3,0-10.6-3.1-11.8-8.5c-1.5-6.7,3.1-12.7,9.9-13.2c1.1-0.1,2.1,0,3.2,0
		c50.9,0,101.8,0,152.8,0.1c2.2,0,3.2-0.6,3.9-2.7c14.9-43.2,29.9-86.3,44.8-129.5c2.5-7.2,5.6-9.4,13.1-9.4c10.8,0,21.6,0,32.4,0
		c6,0,10.2,3.2,11.3,8.4c1.6,7.2-3.4,13.2-11.1,13.3c-8.1,0.1-16.3,0.1-24.4,0c-1.8,0-2.7,0.4-3.4,2.3c-15,43.3-30,86.5-45,129.8
		c-2.5,7.3-5.6,9.5-13.3,9.5C163.5,358.9,136.5,358.9,109.5,358.9z"/>
	<path class="st1" d="M48.4,383.5c0,8.9-7.1,16.1-16.1,16.2c-8.7,0.1-16.3-7.3-16.4-16.1c-0.1-9.2,7.3-16.6,16.4-16.6
		C41.3,367,48.4,374.3,48.4,383.5z"/>
	<path class="st1" d="M195.4,383.3c0,9.1-7.2,16.4-16.2,16.4c-8.9,0-16.3-7.5-16.3-16.4c0-9,7.6-16.4,16.5-16.3
		C188.3,367.1,195.4,374.3,195.4,383.3z"/>
	<g>
		<path class="st1" d="M377.5,220.3c3.1,0,5.8-1.1,7.9-3.2c2.1-2.1,3.2-4.8,3.2-7.9c0-3.1-1.1-5.8-3.2-7.9c-2.1-2.1-4.8-3.2-7.9-3.2
			h-64.4c-3.1,0-5.8,1.1-7.9,3.2c-2.1,2.1-3.2,4.8-3.2,7.9c0,3.1,1.1,5.8,3.2,7.9c2.1,2.1,4.8,3.2,7.9,3.2h21.1l-0.2,139.5h-21.1
			c-3.1,0-5.8,1.1-7.9,3.2c-2.1,2.1-3.2,4.8-3.2,7.9c0,3.1,1.1,5.8,3.2,7.9c2.1,2.1,4.8,3.2,7.9,3.2h64.4c3.1,0,5.8-1.1,7.9-3.2
			c2.1-2.1,3.2-4.8,3.2-7.9c0-3.1-1.1-5.8-3.2-7.9c-2.1-2.1-4.8-3.2-7.9-3.2h-21.1l0.2-139.5H377.5z"/>
		<path class="st1" d="M426.4,287.8c3.9-3.9,8.4-6.9,13.6-9.2c5.2-2.2,10.8-3.3,16.7-3.3c6.3,0,12.3,1.3,18,3.8
			c5.7,2.6,10.6,6.2,14.7,11c2.3,2.6,5.1,4,8.4,4c2.8,0,5.3-1,7.4-3.1c2.1-2.1,3.4-4.5,3.7-7.3c0.3-3.1-0.6-5.9-2.7-8.2
			c-6.3-7.3-13.7-12.9-22.3-16.9c-8.6-4-17.7-5.9-27.3-5.7c-8.9,0-17.3,1.7-25.3,5.1c-7.9,3.4-14.9,8-20.8,13.9
			c-5.9,5.9-10.6,12.8-14,20.7c-3.4,7.9-5.1,16.4-5.1,25.5c0,8.9,1.7,17.3,5.1,25.3c3.4,7.9,8.1,14.9,14,20.8
			c5.9,5.9,12.9,10.6,20.8,14c7.9,3.4,16.4,5.1,25.3,5.1c9.6,0,18.7-1.9,27.3-5.8c8.6-3.9,16-9.5,22.3-17c2.1-2.3,3.1-5,2.7-8.2
			c-0.3-3.1-1.7-5.6-4-7.4c-2-1.8-4.4-2.7-7.2-2.7c-3.3,0-6.1,1.2-8.4,3.7c-4.1,4.8-9,8.5-14.7,11.2c-5.7,2.6-11.7,4-18,4
			c-5.9,0-11.5-1.1-16.7-3.3c-5.2-2.2-9.8-5.3-13.6-9.2c-3.9-3.9-6.9-8.4-9.2-13.6c-2.2-5.2-3.3-10.8-3.3-16.7
			c0-5.9,1.1-11.5,3.3-16.7C419.5,296.3,422.6,291.7,426.4,287.8z"/>
		<path class="st1" d="M630.9,272c-5.9-5.9-12.8-10.5-20.7-14c-7.9-3.5-16.4-5.2-25.5-5.2c-8.9,0-17.3,1.7-25.3,5.2
			c-7.9,3.5-14.9,8.1-20.8,14c-5.9,5.9-10.6,12.8-14,20.7c-3.4,7.9-5.1,16.4-5.1,25.5c0,8.9,1.7,17.3,5.1,25.3
			c3.4,7.9,8.1,14.9,14,20.8c5.9,5.9,12.9,10.6,20.8,14c7.9,3.4,16.4,5.1,25.3,5.1c9.1,0,17.6-1.7,25.5-5.1
			c7.9-3.4,14.8-8.1,20.7-14c5.9-5.9,10.5-12.9,14-20.8c3.5-7.9,5.2-16.4,5.2-25.3c0-9.1-1.7-17.6-5.2-25.5
			C641.4,284.7,636.8,277.8,630.9,272z M624.2,334.9c-2.2,5.2-5.3,9.8-9.2,13.6c-3.9,3.9-8.4,6.9-13.6,9.2
			c-5.2,2.2-10.8,3.3-16.7,3.3c-5.9,0-11.5-1.1-16.7-3.3c-5.2-2.2-9.8-5.3-13.6-9.2c-3.9-3.9-6.9-8.4-9.2-13.6
			c-2.2-5.2-3.3-10.8-3.3-16.7c0-5.9,1.1-11.5,3.3-16.7c2.2-5.2,5.3-9.7,9.2-13.6c3.9-3.9,8.4-6.9,13.6-9.2
			c5.2-2.2,10.8-3.3,16.7-3.3c5.9,0,11.5,1.1,16.7,3.3c5.2,2.2,9.7,5.3,13.6,9.2c3.9,3.9,6.9,8.4,9.2,13.6
			c2.2,5.2,3.3,10.8,3.3,16.7C627.6,324.1,626.4,329.7,624.2,334.9z"/>
		<path class="st1" d="M826,299c-0.1-3.1-0.5-6.5-1.4-10.4c-0.8-3.9-2.1-7.9-4-12c-1.8-4.1-4.5-7.9-7.9-11.4
			c-4.3-4.3-9.3-7.5-14.9-9.5c-5.6-2.1-11.4-2.9-17.3-2.6c-8.8,0-15.9,1.4-21.6,4.1c-5.6,2.7-10.2,6.2-13.6,10.3
			c-0.7-1-1.3-1.8-2-2.5c-4.3-4.1-9.3-7.2-15-9.3c-5.7-2.1-11.5-2.9-17.5-2.6c-7.8,0-14.3,1.2-19.7,3.5c-5.4,2.3-9.8,5.2-13.3,8.7
			c-3.5,3.5-6.1,7.3-7.9,11.5c-1.8,4.2-3.1,8.3-3.8,12.1c-0.7,3.9-1.2,7.3-1.2,10.3c-0.1,3-0.1,5-0.1,6.2v66.9
			c0,3.1,1.1,5.8,3.3,7.9c2.2,2.1,4.8,3.2,7.8,3.2c3.1,0,5.8-1.1,8.1-3.2c2.2-2.1,3.3-4.8,3.3-7.9c0-12.7,0-24,0-34
			c0-4.3,0-8.5-0.1-12.6c-0.1-4.1-0.1-7.8-0.1-11s0-6.8,0-10.8c0-0.7,0-2.5,0.1-5.6c0.1-3.1,0.8-6.3,2.1-9.7
			c1.3-3.4,3.6-6.4,6.9-9.2c3.3-2.7,8.2-4.1,14.6-4.1c3-0.3,5.9,0,8.8,1c2.9,1,5.5,2.5,7.8,4.5c4.5,5,6.7,10.7,6.7,17.1v38.9
			c0,10.6,0,22.4,0,35.4c0,3.1,1.1,5.8,3.2,7.9c2.1,2.1,4.8,3.2,7.9,3.2c3.1,0,5.8-1.1,7.9-3.2c2.1-2.1,3.2-4.8,3.2-7.9
			c0-13.2,0-25.1,0-35.7c0-4.5,0-8.9,0.1-13.3c0.1-4.4,0.1-8.3,0.1-11.8s0-6.4-0.1-8.7c-0.1-2.3-0.1-3.6-0.1-4
			c0.2-2.1,0.6-4.6,1.2-7.3c0.7-2.7,1.9-5.3,3.6-7.7c1.7-2.4,4.1-4.4,7.2-6.1c3.1-1.6,7.1-2.5,12-2.5c6.1-0.5,11.6,1.3,16.6,5.5
			c2.1,2.1,3.7,4.6,4.6,7.3c0.9,2.7,1.5,5.2,1.9,7.6c0.3,2.8,0.4,5.6,0.2,8.4c0,3.3,0,6.9,0,10.7c-0.2,3.3-0.2,7-0.2,11
			c0,4.1,0,8.2,0,12.5c0,9.9,0,21.2,0,34c0,3.1,1.1,5.8,3.3,7.9c2.2,2.1,4.9,3.2,8.1,3.2c3,0,5.6-1.1,7.8-3.2
			c2.2-2.1,3.3-4.8,3.3-7.9v-66.9C826.1,304.1,826,302,826,299z"/>
	</g>
</g>
</svg>
