<?xml version="1.0" encoding="utf-8"?>
<!-- Generator: Adobe Illustrator 27.0.1, SVG Export Plug-In . SVG Version: 6.00 Build 0)  -->
<svg version="1.1" id="Layer_1" xmlns="http://www.w3.org/2000/svg" xmlns:xlink="http://www.w3.org/1999/xlink" x="0px" y="0px"
	 viewBox="0 0 595.3 841.9" style="enable-background:new 0 0 595.3 841.9;" xml:space="preserve">
<style type="text/css">
	.st0{fill:#67C4AC;}
	.st1{fill:#7F69CE;}
</style>
<g>
	<path class="st0" d="M228.7,229.4c53.5,0,107,0,160.4,0c6.2,0,11.7,1.1,16.4,5.7c6.4,6.3,7.5,13.8,4.6,21.6
		c-2.8,7.7-8.9,12.3-17.5,12.8c-2,0.1-4,0.1-6,0.1c-99.6,0-199.3,0-298.9,0c-6.4,0-6.4,0-6.4,6.5c0,14.3,0.2,28.7-0.1,43
		c-0.1,4.5,1,5.9,5.7,5.9c55.6-0.2,111.3-0.1,166.9-0.1c31.8,0,63.6-0.1,95.5,0c16.1,0.1,25.8,15.8,18.3,29.7
		c-3.4,6.3-8.7,9.9-16,10.2c-2.2,0.1-4.3,0.1-6.5,0.1c-85.6,0-171.3,0-256.9,0c-6.9,0-6.9,0-6.9,6.7c0,14.3,0.2,28.7-0.1,43
		c-0.1,4.9,1.5,6.1,6.2,6.1c74.6-0.1,149.3-0.1,223.9-0.1c11.5,0,18.8,4.8,21.8,14.5c3.6,11.4-4.6,24.1-16.4,25.5
		c-2.1,0.2-4.3,0.2-6.5,0.2c-81.8,0-163.6,0-245.4,0c-5.4,0-10.6-0.2-15.1-3.8c-5.8-4.6-8.5-10.3-8.5-17.7
		c0.1-62,0.2-123.9-0.1-185.9c-0.1-13.3,7.3-22.5,22-23.7c2.2-0.2,4.3-0.1,6.5-0.1C122.8,229.4,175.8,229.4,228.7,229.4z"/>
	<path class="st1" d="M217.8,536.3c-51.1,0-102.3,0-153.4,0c-11.9,0-20-5.9-22.3-16c-2.8-12.5,5.8-24,18.6-24.8c2-0.1,4-0.1,6-0.1
		c95.9,0,191.9,0,287.8,0.1c4.2,0,6-1.2,7.3-5.2c28.1-81.3,56.3-162.6,84.5-243.9c4.7-13.5,10.6-17.8,24.7-17.8
		c20.3,0,40.6-0.1,61,0c11.3,0.1,19.2,6.1,21.3,15.9c3,13.6-6.3,24.9-21,25.1c-15.3,0.2-30.6,0.1-46,0c-3.5,0-5.1,0.8-6.3,4.3
		c-28.2,81.5-56.5,163-84.8,244.5c-4.8,13.7-10.6,17.9-25.1,17.9C319.5,536.3,268.7,536.3,217.8,536.3z"/>
	<path class="st1" d="M102.7,582.7c0,16.8-13.4,30.3-30.4,30.5c-16.5,0.2-30.8-13.8-30.9-30.3c-0.1-17.3,13.8-31.3,30.9-31.3
		C89.3,551.7,102.7,565.4,102.7,582.7z"/>
	<path class="st1" d="M379.6,582.4c0,17.1-13.5,30.8-30.6,30.9c-16.8,0.1-30.8-14.1-30.7-31c0.1-16.9,14.2-30.8,31.1-30.6
		C366.2,551.9,379.6,565.5,379.6,582.4z"/>
</g>
</svg>
